<?xml version="1.0" encoding="utf-8"?>
<!-- Svg Vector Icons : http://www.onlinewebfonts.com/icon -->
<!DOCTYPE svg PUBLIC "-//W3C//DTD SVG 1.1//EN" "http://www.w3.org/Graphics/SVG/1.1/DTD/svg11.dtd">
<svg version="1.1" xmlns="http://www.w3.org/2000/svg" xmlns:xlink="http://www.w3.org/1999/xlink" x="0px" y="0px" viewBox="0 0 1000 1000" enable-background="new 0 0 1000 1000" xml:space="preserve">
<metadata> Svg Vector Icons : http://www.onlinewebfonts.com/icon </metadata>
<g><g transform="translate(0.000000,512.000000) scale(0.100000,-0.100000)"><path d="M9599.7,4995.2c-21-11.5-613.9-596.7-1319.7-1300.5L6998.6,2417.1l-258.2,82.2c-1650.5,533.6-3471.3,275.4-4934.4-698.1C1174.9,1380.5,641.3,866,201.4,259.7L100,120.1L201.4-17.6c556.6-772.7,1306.3-1426.8,2111.5-1843.7c137.7-70.8,252.5-132,258.2-135.8c3.8-3.8-539.3-554.6-1208.7-1226C692.9-3892.5,136.3-4460.5,124.9-4483.5c-40.2-80.3-24.9-158.7,44-227.6c74.6-74.6,162.6-86.1,241-34.5c26.8,17.2,619.7,602.5,1319.7,1300.5l1271.9,1268l258.2-82.2c1116.9-361.5,2360.1-361.5,3482.8-1.9C7954.9-1870.9,9004.9-1100.1,9798.6-19.5L9900,120.1l-101.4,137.7c-556.6,772.7-1306.3,1426.8-2111.5,1843.7c-135.8,70.8-252.5,132-258.2,135.8c-3.8,3.8,539.3,554.6,1208.7,1225.9c669.4,669.4,1225.9,1237.4,1237.4,1260.4c40.2,80.3,24.9,158.7-44,227.6C9762.3,5020.1,9676.2,5035.4,9599.7,4995.2z M5504.9,2292.8c95.6-28.7,246.7-89.9,336.6-137.7c172.1-88,483.9-325.1,493.4-372.9c1.9-15.3-575.7-608.2-1285.2-1315.8l-1291-1291l-42.1,38.3C3533.1-625.8,3294-212.7,3217.5,72.3c-59.3,223.8-59.3,657.9,0,895.1c130.1,518.3,483.9,960.1,960.1,1199.2c304.1,151.1,497.3,193.2,870.2,183.6C5290.7,2344.4,5361.5,2336.8,5504.9,2292.8z M3276.8,1961.9c-229.5-285-363.4-545.1-451.4-883.6C2758.5,822,2743.2,410.8,2791,145c76.5-432.2,277.3-837.7,564.2-1139.9l112.8-118.6l-288.8-288.8L2892.3-1693l-176,82.2c-558.5,260.1-1118.9,659.8-1583.6,1130.3C861.2-203.1,620.2,76.1,620.2,120.1c0,42.1,313.7,407.4,550.8,642.6c570,564.2,1250.8,1002.2,1992.9,1275.7c195.1,70.8,235.2,86.1,244.8,88C3410.7,2128.3,3351.4,2053.7,3276.8,1961.9z M6663.9,2088.1c0-26.8-30.6-21-55.5,9.6c-19.1,23-15.3,24.9,15.3,17.2C6646.7,2109.2,6663.9,2097.7,6663.9,2088.1z M7648.9,1659.7c470.5-273.5,853-568,1227.9-948.6c256.3-262,503-548.9,503-587.1c0-44-307.9-401.7-556.5-648.4c-864.5-853-1870.5-1359.8-3077.3-1549.2c-313.7-49.7-1178.1-49.7-1491.8,0c-329,51.7-877.9,181.7-918,218c-3.8,3.8,97.5,112.9,227.6,242.9l235.2,235.2l176-89.9c346.2-176,621.6-239.1,1034.7-237.2c252.5,0,338.5,7.7,487.7,44c919.9,223.8,1587.4,950.5,1723.2,1876.2c34.4,237.2,13.4,635-45.9,864.5c-53.5,200.8-149.2,438-227.6,560.4l-49.7,76.5l105.2,107.1l105.2,109l176-82.2C7379.2,1807,7543.7,1720.9,7648.9,1659.7z M6652.5,1330.8c24.9-51.6,66.9-160.6,93.7-244.8c208.5-661.7,36.3-1367.5-453.3-1857.1C5939.1-1123,5503-1302.8,5000-1300.9c-300.3,0-503,44-770.8,164.5l-130.1,59.3L5348.1,171.8c686.6,686.6,1250.8,1248.9,1252.7,1248.9C6604.6,1420.7,6625.7,1380.5,6652.5,1330.8z"/><path d="M4705.5,1923.7C4078.1,1789.8,3596.2,1221.7,3579,598.3c-3.8-153-3.8-156.8,59.3-212.3c84.2-76.5,189.4-76.5,273.5-1.9c55.5,49.7,61.2,66.9,74.6,216.1c49.7,526,420.8,893.2,956.3,946.7c216.1,21,306,126.2,241,281.1C5132,1954.3,4984.7,1984.9,4705.5,1923.7z"/></g></g>
</svg>