<?xml version="1.0" encoding="utf-8"?>
<!-- Svg Vector Icons : http://www.onlinewebfonts.com/icon -->
<!DOCTYPE svg PUBLIC "-//W3C//DTD SVG 1.1//EN" "http://www.w3.org/Graphics/SVG/1.1/DTD/svg11.dtd">
<svg version="1.1" xmlns="http://www.w3.org/2000/svg" xmlns:xlink="http://www.w3.org/1999/xlink" x="0px" y="0px" viewBox="0 0 1000 1000" enable-background="new 0 0 1000 1000" xml:space="preserve">
<metadata> Svg Vector Icons : http://www.onlinewebfonts.com/icon </metadata>
<g><path d="M487.3,245.3c-12.8,0-29.8,42.6-17,80.9c-34.1,0-25.6-80.9-25.6-80.9c-8.5,4.3-34.1-4.3-34.1-4.3c21.3-4.3,29.4-16.6,21.3-25.6C351,126,304.8,295.1,329.7,321.9C436.2,437,397.9,471,397.9,471c25.6,68.2,174.7,213,174.7,213c72.4-119.3,4.3-200.2-12.8-213c-17-12.8-21.3,25.6-21.3,25.6c-12.8-34.1-59.6-25.6-59.6-25.6c25.6-63.9,98-51.1,98-51.1s-4.3,8.5-17,8.5c-12.8,0,42.6,21.3,55.4,29.8c12.8,8.5,4.3-17,4.3-17c34.1,29.8,29.8,72.4,38.3,93.7c8.5,21.3,17-4.3,17-4.3c12.8,42.6-4.3,85.2,0,102.2c4.3,17,21.3,4.3,21.3,4.3c-8.5,80.9-38.3,123.5-38.3,123.5c191.7,161.9,332.3,115,332.3,115c-25.6,21.3-110.8,80.9-157.6,55.4c-46.9-25.6-110.8,12.8-110.8,12.8c-25.6-38.3-110.8-76.7-166.1-46.9c-305.3,164.4-438.8-98-455.8-119.3c-17-21.3-29.8,29.8-29.8,29.8c-76.7-72.4-8.5-166.1-12.8-191.7c-4.3-25.6-42.6,21.3-42.6,21.3c-29.8-76.7,98-174.7,98-196c0-21.3-42.6,0-42.6,0c42.6-80.9,174.7-76.7,174.7-76.7s-8.5-46.9-21.3-63.9c-12.8-17-21.3,12.8-21.3,12.8c-17-51.1,12.8-72.4,38.3-115c12.8-25.6-29.8-17-29.8-17c38.3-55.4,85.2-30.9,110.8-60.7c12.8-12.8-17-23.4-17-23.4c34.1-18.1,68.2,20.2,98-3.2C428.3,73.5,351,49.3,351,49.3c153.4-4.3,119.3,63.9,204.5,127.8c0,17,4.3,46.9,4.3,46.9c51.1,93.7-8.5,98-8.5,98C576.8,287.9,500.1,245.3,487.3,245.3z M291.4,517.9C1.7,628.6,299.9,918.3,478.8,803.3c0-25.6-59.6-29.8-59.6-29.8c-8.5-110.8-102.2-115-102.2-115C334,594.6,294.8,511.1,291.4,517.9z"/></g>
</svg>