<?xml version="1.0" encoding="utf-8"?>
<!-- Svg Vector Icons : http://www.onlinewebfonts.com/icon -->
<!DOCTYPE svg PUBLIC "-//W3C//DTD SVG 1.1//EN" "http://www.w3.org/Graphics/SVG/1.1/DTD/svg11.dtd">
<svg version="1.1" xmlns="http://www.w3.org/2000/svg" xmlns:xlink="http://www.w3.org/1999/xlink" x="0px" y="0px" viewBox="0 0 1000 1000" enable-background="new 0 0 1000 1000" xml:space="preserve">
<metadata> Svg Vector Icons : http://www.onlinewebfonts.com/icon </metadata>
<g><g transform="translate(0.000000,511.000000) scale(0.100000,-0.100000)"><path d="M4600.3,2748c-1019.4-80.3-1956.6-401.6-2794.3-958.2C1174.9,1369,641.3,854.6,201.4,246.4L100,108.7L201.4-30.9c789.9-1080.6,1836.1-1845.6,3058.2-2239.6c810.9-262,1730.9-336.6,2570.5-210.4C7415.6-2243.8,8806-1385,9798.6-30.9L9900,108.7l-101.4,137.7c-791.8,1095.9-1903,1893.4-3173,2277.9C6019.4,2707.8,5221.9,2795.8,4600.3,2748z M5504.9,2281.3c648.4-195.1,1132.2-707.6,1287.2-1361.7c51.6-225.7,47.8-631.1-11.5-849.2c-179.8-679-688.5-1176.2-1373.2-1340.7c-233.3-57.4-581.4-57.4-814.7,0c-562.3,135.8-985,472.4-1237.4,983.1c-143.4,292.6-177.9,441.8-179.8,788c-1.9,351.9,40.2,537.4,179.8,822.4c248.6,508.7,707.7,864.5,1283.3,994.5c86.1,19.1,206.6,26.8,409.3,21C5290.7,2333,5361.5,2325.3,5504.9,2281.3z M3332.2,2019.3c-390.2-457.1-569.9-935.2-569.9-1510.9c0-1046.2,701.9-1924,1742.4-2180.3c260.1-63.1,730.6-63.1,990.7,0c583.3,143.4,1048.1,464.8,1371.3,950.5C7138.2-314,7253,108.7,7232,623.1c-19.1,508.8-181.7,929.5-510.7,1329.2l-133.9,162.6l128.1-44c814.7-281.2,1541.5-742.1,2161.2-1371.3c256.3-262,503-548.9,503-587.1c0-82.3-648.4-765-981.1-1034.7c-204.6-164.5-589.1-420.8-830.1-554.6C7017.8-1779,6421-1977.9,5745.9-2085c-313.7-49.7-1178.1-49.7-1491.8,0c-1015.6,160.7-1870.5,535.5-2658.5,1170.5C1249.5-635.3,622.1,22.6,620.2,108.7c0,42.1,296.5,388.3,539.4,631.2C1733.3,1311.7,2418,1751.6,3163.9,2027c218,80.3,237.2,86.1,244.8,88C3412.6,2116.9,3378.1,2072.9,3332.2,2019.3z"/><path d="M4707.4,1914.1C4076.2,1778.3,3596.2,1212.2,3579,586.8c-3.8-153-3.8-156.8,59.3-212.3c84.2-76.5,189.4-76.5,273.5-1.9c55.5,49.7,61.2,66.9,74.6,216.1c49.7,526,420.8,893.2,956.3,946.7c216.1,21.1,306,126.2,241,281.2C5132,1942.8,4984.7,1973.4,4707.4,1914.1z"/></g></g>
</svg>