<svg width="25" height="25" viewBox="0 0 25 25" fill="none" xmlns="http://www.w3.org/2000/svg">
<path d="M12.5 0.0466118C10.037 0.0466753 7.62929 0.777101 5.58139 2.14552C3.53349 3.51395 1.93736 5.45891 0.994831 7.73446C0.0523053 10.01 -0.194282 12.5139 0.286251 14.9296C0.766784 17.3453 1.95286 19.5643 3.69448 21.3059C5.43611 23.0475 7.65507 24.2336 10.0708 24.7141C12.4865 25.1946 14.9904 24.948 17.2659 24.0055C19.5415 23.0629 21.4864 21.4668 22.8548 19.4189C24.2233 17.371 24.9537 14.9633 24.9537 12.5002C24.9536 9.19736 23.6415 6.02978 21.306 3.69429C18.9705 1.3588 15.8029 0.0467006 12.5 0.0466118ZM7.02418 8.30176C7.02418 7.17287 7.7061 6.25782 8.54723 6.25782H15.6392C16.4798 6.25782 17.1617 7.17286 17.1617 8.30176V8.33363H7.02418V8.30176ZM17.4195 10.797L16.1274 18.9692C16.0941 19.1796 15.9868 19.3712 15.8249 19.5095C15.6629 19.6479 15.4569 19.7239 15.244 19.7239H8.9423C8.72934 19.7238 8.5234 19.6478 8.3615 19.5095C8.1996 19.3711 8.09237 19.1796 8.05909 18.9692L6.76701 10.797C6.74667 10.6693 6.75428 10.5387 6.78932 10.4143C6.82436 10.2898 6.886 10.1744 6.96997 10.0761C7.05394 9.97781 7.15825 9.89889 7.2757 9.84482C7.39314 9.79075 7.52092 9.76282 7.65021 9.76294H16.536C16.6653 9.76293 16.793 9.79093 16.9104 9.84503C17.0278 9.89913 17.1321 9.97804 17.2161 10.0763C17.3001 10.1746 17.3617 10.2899 17.3968 10.4143C17.432 10.5387 17.4397 10.6693 17.4195 10.797Z" fill="#d9181d"/>
<path d="M12.0933 18.5114C11.9577 18.5113 11.8277 18.4574 11.7318 18.3616C11.636 18.2657 11.5821 18.1357 11.582 18.0001V11.8682C11.582 11.7327 11.6358 11.6027 11.7316 11.5069C11.8275 11.4111 11.9574 11.3572 12.093 11.3572C12.2285 11.3572 12.3584 11.4111 12.4543 11.5069C12.5501 11.6027 12.6039 11.7327 12.6039 11.8682V18.0001C12.6039 18.1356 12.5502 18.2656 12.4544 18.3614C12.3587 18.4573 12.2288 18.5113 12.0933 18.5114Z" fill="#d9181d"/>
<path d="M9.54129 18.5114C9.41355 18.5112 9.29051 18.4632 9.19643 18.3768C9.10235 18.2904 9.04404 18.1719 9.03298 18.0446L8.49859 11.9355C8.48716 11.8007 8.52969 11.6668 8.61686 11.5632C8.70403 11.4597 8.82872 11.395 8.96355 11.3833C9.09838 11.3716 9.23235 11.4139 9.33605 11.5008C9.43975 11.5878 9.50471 11.7124 9.51668 11.8472L10.0511 17.9551C10.0629 18.0901 10.0206 18.2243 9.9335 18.3282C9.84641 18.432 9.72165 18.4971 9.58663 18.509C9.57131 18.5102 9.5563 18.5114 9.54129 18.5114Z" fill="#d9181d"/>
<path d="M14.5795 18.5115C14.565 18.5115 14.5494 18.5102 14.5343 18.509C14.3993 18.4971 14.2745 18.4321 14.1874 18.3282C14.1003 18.2244 14.0581 18.0901 14.07 17.9551L14.604 11.8472C14.6158 11.7122 14.6806 11.5874 14.7843 11.5003C14.888 11.4131 15.0221 11.3707 15.1571 11.3825C15.2921 11.3942 15.4169 11.459 15.504 11.5628C15.5912 11.6665 15.6335 11.8006 15.6218 11.9355L15.0878 18.0446C15.0768 18.1719 15.0186 18.2905 14.9244 18.377C14.8303 18.4634 14.7072 18.5114 14.5795 18.5115Z" fill="#d9181d"/>
</svg>
